<svg width="28" height="25" viewBox="0 0 28 25" fill="none" xmlns="http://www.w3.org/2000/svg">
<path d="M19.625 2H7.375C4.95913 2 3 3.95913 3 6.375V18.625C3 21.0409 4.95913 23 7.375 23H19.625C22.0417 23 24 21.0409 24 18.625V6.375C24 3.95913 22.0417 2 19.625 2ZM19.5034 10.0824C19.6863 14.1223 16.6736 18.6268 11.3396 18.6268C9.71738 18.6268 8.208 18.1516 6.93663 17.3361C8.46088 17.5155 9.98163 17.0929 11.1891 16.147C9.93175 16.1234 8.87125 15.293 8.50638 14.152C8.957 14.2378 9.39975 14.2124 9.80312 14.103C8.4215 13.8256 7.46863 12.5814 7.49925 11.2505C7.886 11.4657 8.32962 11.5953 8.7995 11.6101C7.52112 10.7552 7.15887 9.0665 7.9105 7.775C9.32713 9.51275 11.4438 10.6564 13.8308 10.7762C13.4116 8.97987 14.7758 7.25 16.6299 7.25C17.455 7.25 18.2023 7.59825 18.7255 8.15738C19.38 8.02875 19.9951 7.78988 20.5508 7.46088C20.3355 8.132 19.8805 8.69463 19.2881 9.04988C19.8691 8.97988 20.423 8.82587 20.9375 8.5975C20.5534 9.1715 20.066 9.67725 19.5034 10.0824Z" fill="url(#paint0_linear_1130_3367)"/>
<defs>
<linearGradient id="paint0_linear_1130_3367" x1="3" y1="12.4999" x2="24" y2="12.4999" gradientUnits="userSpaceOnUse">
<stop stop-color="#DA7F56"/>
<stop offset="1" stop-color="#D37B55"/>
</linearGradient>
</defs>
</svg>
