<svg width="24" height="24" viewBox="0 0 24 24" fill="none" xmlns="http://www.w3.org/2000/svg">
<g clip-path="url(#clip0_1130_3339)">
<path d="M7.20455 2C3.7825 2 1 4.7825 1 8.20455V16.7955C1 20.2175 3.7825 23 7.20455 23H15.7955C19.2175 23 22 20.2175 22 16.7955V8.20455C22 4.7825 19.2175 2 15.7955 2H7.20455ZM17.2273 5.81818C17.7523 5.81818 18.1818 6.24773 18.1818 6.77273C18.1818 7.29773 17.7523 7.72727 17.2273 7.72727C16.7023 7.72727 16.2727 7.29773 16.2727 6.77273C16.2727 6.24773 16.7023 5.81818 17.2273 5.81818ZM11.5 7.25C14.397 7.25 16.75 9.60295 16.75 12.5C16.75 15.397 14.397 17.75 11.5 17.75C8.60295 17.75 6.25 15.397 6.25 12.5C6.25 9.60295 8.60295 7.25 11.5 7.25ZM11.5 8.20455C9.13273 8.20455 7.20455 10.1327 7.20455 12.5C7.20455 14.8673 9.13273 16.7955 11.5 16.7955C13.8673 16.7955 15.7955 14.8673 15.7955 12.5C15.7955 10.1327 13.8673 8.20455 11.5 8.20455Z" fill="url(#paint0_linear_1130_3339)"/>
</g>
<defs>
<linearGradient id="paint0_linear_1130_3339" x1="2637.13" y1="6383.06" x2="3345.25" y2="6383.06" gradientUnits="userSpaceOnUse">
<stop stop-color="#C95F63"/>
<stop offset="1" stop-color="#C05863"/>
</linearGradient>
<clipPath id="clip0_1130_3339">
<rect width="24" height="24" fill="white"/>
</clipPath>
</defs>
</svg>
