<svg width="124" height="100" viewBox="0 0 124 100" fill="none" xmlns="http://www.w3.org/2000/svg">
<g filter="url(#filter0_dd_1258_5715)">
<rect x="32" y="20" width="60" height="36" rx="16" fill="#EB9F4A"/>
</g>
<path d="M54.5334 33.172V39.262L50.5294 33.172H48.1354V43H50.5294V36.938L54.5334 43H56.9274V33.172H54.5334ZM61.6987 36.994C62.4967 36.994 63.1687 37.484 63.1687 38.338H60.1727C60.3127 37.47 60.9147 36.994 61.6987 36.994ZM65.4367 40.41H62.8887C62.6927 40.83 62.3147 41.166 61.6427 41.166C60.8727 41.166 60.2427 40.69 60.1587 39.668H65.5767C65.6047 39.43 65.6187 39.192 65.6187 38.968C65.6187 36.588 64.0087 35.076 61.7267 35.076C59.4027 35.076 57.7787 36.616 57.7787 39.094C57.7787 41.572 59.4307 43.112 61.7267 43.112C63.6727 43.112 65.0587 41.936 65.4367 40.41ZM67.7897 43H70.4217L71.6957 37.932L72.9277 43H75.5737L77.6877 35.188H75.4337L74.3417 40.746L73.0117 35.188H70.4777L69.1617 40.774L68.0557 35.188H65.6617L67.7897 43Z" fill="black"/>
<defs>
<filter id="filter0_dd_1258_5715" x="0" y="0" width="124" height="100" filterUnits="userSpaceOnUse" color-interpolation-filters="sRGB">
<feFlood flood-opacity="0" result="BackgroundImageFix"/>
<feColorMatrix in="SourceAlpha" type="matrix" values="0 0 0 0 0 0 0 0 0 0 0 0 0 0 0 0 0 0 127 0" result="hardAlpha"/>
<feOffset dy="12"/>
<feGaussianBlur stdDeviation="16"/>
<feColorMatrix type="matrix" values="0 0 0 0 0 0 0 0 0 0 0 0 0 0 0 0 0 0 0.05 0"/>
<feBlend mode="normal" in2="BackgroundImageFix" result="effect1_dropShadow_1258_5715"/>
<feColorMatrix in="SourceAlpha" type="matrix" values="0 0 0 0 0 0 0 0 0 0 0 0 0 0 0 0 0 0 127 0" result="hardAlpha"/>
<feOffset dy="2"/>
<feGaussianBlur stdDeviation="2"/>
<feColorMatrix type="matrix" values="0 0 0 0 0.10936 0 0 0 0 0.0193333 0 0 0 0 0.300667 0 0 0 0.1 0"/>
<feBlend mode="normal" in2="effect1_dropShadow_1258_5715" result="effect2_dropShadow_1258_5715"/>
<feBlend mode="normal" in="SourceGraphic" in2="effect2_dropShadow_1258_5715" result="shape"/>
</filter>
</defs>
</svg>
