<svg width="28" height="25" viewBox="0 0 28 25" fill="none" xmlns="http://www.w3.org/2000/svg">
<path d="M19.8333 2.5H8.16667C5.5895 2.5 3.5 4.5895 3.5 7.16667V18.8333C3.5 21.4105 5.5895 23.5 8.16667 23.5H14.7245V15.3788H11.991V12.1997H14.7245V9.8605C14.7245 7.14917 16.3823 5.671 18.802 5.671C19.6175 5.66867 20.4318 5.71067 21.2427 5.7935V8.6285H19.5767C18.2583 8.6285 18.0017 9.2515 18.0017 10.1708V12.195H21.1517L20.7422 15.3742H17.983V23.5H19.8333C22.4105 23.5 24.5 21.4105 24.5 18.8333V7.16667C24.5 4.5895 22.4105 2.5 19.8333 2.5Z" fill="url(#paint0_linear_1205_12502)"/>
<defs>
<linearGradient id="paint0_linear_1205_12502" x1="3.51662" y1="13.0029" x2="24.4993" y2="13.0029" gradientUnits="userSpaceOnUse">
<stop stop-color="#84B0A0"/>
<stop offset="1" stop-color="#81AE9E"/>
</linearGradient>
</defs>
</svg>
