<svg width="83" height="74" viewBox="0 0 83 74" fill="none" xmlns="http://www.w3.org/2000/svg">
<g clip-path="url(#clip0_1130_3315)">
<g filter="url(#filter0_ddd_1130_3315)">
<path d="M81.4582 47.4207C79.7578 45.8742 77.1064 45.9754 75.3196 47.4207L62.005 58.1016C60.3767 59.4168 58.345 60.125 56.2411 60.125H39.1944C37.9264 60.125 36.8889 59.0844 36.8889 57.8125C36.8889 56.5406 37.9264 55.5 39.1944 55.5H50.4772C52.7684 55.5 54.901 53.9246 55.2757 51.6555C55.7512 48.7648 53.5321 46.25 50.7222 46.25H27.6667C23.776 46.25 20.0151 47.5941 16.9891 50.0512L10.2885 55.5H2.30556C1.0375 55.5 0 56.5406 0 57.8125V71.6875C0 72.9594 1.0375 74 2.30556 74H53.7194C55.8088 74 57.8406 73.2918 59.4833 71.9766L81.2708 54.4883C83.4611 52.7395 83.634 49.3863 81.4582 47.4207Z" fill="url(#paint0_linear_1130_3315)"/>
</g>
<g filter="url(#filter1_ddd_1130_3315)">
<path d="M42.0456 16.6212L48.4983 14.0513L32.5263 7.68516L27.0191 9.87937C26.7411 9.99022 26.4802 10.1395 26.244 10.3229L42.0456 16.619V16.6212ZM25.0833 12.1479C25.0335 12.3737 25.0085 12.6042 25.0088 12.8354V29.0607C25.0087 29.697 25.2 30.3187 25.5579 30.8456C25.9159 31.3725 26.4241 31.7804 27.017 32.0167L39.2771 36.9017C39.8308 37.1224 40.4016 37.2752 40.9808 37.3579V18.4822L25.0833 12.1479ZM43.1104 37.3579C43.6897 37.273 44.2604 37.1245 44.8141 36.9017L57.0743 32.0146C57.6665 31.7786 58.1742 31.3713 58.5322 30.8452C58.8901 30.3191 59.0817 29.6984 59.0825 29.0628V12.8354C59.0825 12.602 59.0569 12.3685 59.0079 12.1479L43.1104 18.4822V37.3579ZM57.8494 10.3229L51.3627 12.9075L35.3906 6.54137L39.2771 4.99227C41.0543 4.28383 43.0369 4.28383 44.8141 4.99227L57.0743 9.87937C57.3522 9.99027 57.6132 10.1396 57.8494 10.3229Z" fill="url(#paint1_linear_1130_3315)"/>
</g>
</g>
<defs>
<filter id="filter0_ddd_1130_3315" x="-60" y="10.25" width="203.005" height="147.75" filterUnits="userSpaceOnUse" color-interpolation-filters="sRGB">
<feFlood flood-opacity="0" result="BackgroundImageFix"/>
<feColorMatrix in="SourceAlpha" type="matrix" values="0 0 0 0 0 0 0 0 0 0 0 0 0 0 0 0 0 0 127 0" result="hardAlpha"/>
<feOffset dy="12"/>
<feGaussianBlur stdDeviation="12"/>
<feColorMatrix type="matrix" values="0 0 0 0 0.107812 0 0 0 0 0.23 0 0 0 0 0.467187 0 0 0 0.05 0"/>
<feBlend mode="normal" in2="BackgroundImageFix" result="effect1_dropShadow_1130_3315"/>
<feColorMatrix in="SourceAlpha" type="matrix" values="0 0 0 0 0 0 0 0 0 0 0 0 0 0 0 0 0 0 127 0" result="hardAlpha"/>
<feOffset dy="24"/>
<feGaussianBlur stdDeviation="30"/>
<feColorMatrix type="matrix" values="0 0 0 0 0.0247569 0 0 0 0 0.183589 0 0 0 0 0.49191 0 0 0 0.05 0"/>
<feBlend mode="normal" in2="effect1_dropShadow_1130_3315" result="effect2_dropShadow_1130_3315"/>
<feColorMatrix in="SourceAlpha" type="matrix" values="0 0 0 0 0 0 0 0 0 0 0 0 0 0 0 0 0 0 127 0" result="hardAlpha"/>
<feOffset dy="2"/>
<feGaussianBlur stdDeviation="2"/>
<feColorMatrix type="matrix" values="0 0 0 0 0.0284 0 0 0 0 0.017257 0 0 0 0 0.57441 0 0 0 0.1 0"/>
<feBlend mode="normal" in2="effect2_dropShadow_1130_3315" result="effect3_dropShadow_1130_3315"/>
<feBlend mode="normal" in="SourceGraphic" in2="effect3_dropShadow_1130_3315" result="shape"/>
</filter>
<filter id="filter1_ddd_1130_3315" x="-39.25" y="-36.2725" width="162.592" height="162.441" filterUnits="userSpaceOnUse" color-interpolation-filters="sRGB">
<feFlood flood-opacity="0" result="BackgroundImageFix"/>
<feColorMatrix in="SourceAlpha" type="matrix" values="0 0 0 0 0 0 0 0 0 0 0 0 0 0 0 0 0 0 127 0" result="hardAlpha"/>
<feOffset dy="12"/>
<feGaussianBlur stdDeviation="12"/>
<feColorMatrix type="matrix" values="0 0 0 0 0.107812 0 0 0 0 0.23 0 0 0 0 0.467187 0 0 0 0.05 0"/>
<feBlend mode="normal" in2="BackgroundImageFix" result="effect1_dropShadow_1130_3315"/>
<feColorMatrix in="SourceAlpha" type="matrix" values="0 0 0 0 0 0 0 0 0 0 0 0 0 0 0 0 0 0 127 0" result="hardAlpha"/>
<feOffset dy="24"/>
<feGaussianBlur stdDeviation="30"/>
<feColorMatrix type="matrix" values="0 0 0 0 0.0247569 0 0 0 0 0.183589 0 0 0 0 0.49191 0 0 0 0.05 0"/>
<feBlend mode="normal" in2="effect1_dropShadow_1130_3315" result="effect2_dropShadow_1130_3315"/>
<feColorMatrix in="SourceAlpha" type="matrix" values="0 0 0 0 0 0 0 0 0 0 0 0 0 0 0 0 0 0 127 0" result="hardAlpha"/>
<feOffset dy="2"/>
<feGaussianBlur stdDeviation="2"/>
<feColorMatrix type="matrix" values="0 0 0 0 0.0284 0 0 0 0 0.017257 0 0 0 0 0.57441 0 0 0 0.1 0"/>
<feBlend mode="normal" in2="effect2_dropShadow_1130_3315" result="effect3_dropShadow_1130_3315"/>
<feBlend mode="normal" in="SourceGraphic" in2="effect3_dropShadow_1130_3315" result="shape"/>
</filter>
<linearGradient id="paint0_linear_1130_3315" x1="0" y1="60.1249" x2="83.0046" y2="60.1249" gradientUnits="userSpaceOnUse">
<stop stop-color="#DA7F56"/>
<stop offset="1" stop-color="#D37B55"/>
</linearGradient>
<linearGradient id="paint1_linear_1130_3315" x1="25.0088" y1="20.9093" x2="59.0825" y2="20.9093" gradientUnits="userSpaceOnUse">
<stop stop-color="#DA7F56"/>
<stop offset="1" stop-color="#D37B55"/>
</linearGradient>
<clipPath id="clip0_1130_3315">
<rect width="83" height="74" fill="white"/>
</clipPath>
</defs>
</svg>
