<svg width="187" height="30" viewBox="0 0 187 30" fill="none" xmlns="http://www.w3.org/2000/svg">
<g clip-path="url(#clip0_1205_7709)">
<g filter="url(#filter0_dd_1205_7709)">
<path d="M152.961 28.555C151.605 27.5558 150.559 26.1701 149.949 24.5664C148.546 20.6442 148.546 16.3308 149.949 12.4086C150.558 10.8074 151.605 9.42495 152.961 8.43061C154.346 7.51704 155.954 7.03174 157.595 7.03174C159.237 7.03174 160.845 7.51704 162.229 8.43061C163.581 9.42715 164.624 10.8092 165.231 12.4086C166.635 16.3308 166.635 20.6442 165.231 24.5664C164.621 26.1701 163.575 27.5558 162.219 28.555C160.845 29.4674 159.248 29.9524 157.616 29.9524C155.984 29.9524 154.387 29.4674 153.013 28.555H152.961Z" fill="url(#paint0_linear_1205_7709)"/>
</g>
<g filter="url(#filter1_dd_1205_7709)">
<path d="M47.4621 29.3547C46.4014 28.9761 45.8711 28.4749 45.8711 27.8563V9.15564C45.8711 8.53709 46.386 8.04651 47.4621 7.67324C48.8318 7.2555 50.257 7.0665 51.6841 7.11335C53.1418 7.06326 54.5981 7.25223 55.9988 7.67324C57.0286 8.04651 57.5846 8.53709 57.5846 9.15564V27.867C57.5846 28.4855 57.0698 28.9868 55.9988 29.3654C54.6002 29.7981 53.143 29.9926 51.6841 29.9413C50.2553 29.9859 48.829 29.7877 47.4621 29.3547Z" fill="url(#paint1_linear_1205_7709)"/>
</g>
<g filter="url(#filter2_dd_1205_7709)">
<path d="M94.9751 11.7363C95.4429 11.8384 95.9025 11.9774 96.3498 12.1522L95.8349 13.8266L95.5723 13.9119C94.9122 13.451 94.1431 13.1855 93.348 13.144C92.8929 13.1136 92.4431 13.26 92.0866 13.5546C91.9298 13.7061 91.8077 13.892 91.7293 14.0987C91.6509 14.3053 91.6181 14.5276 91.6335 14.7491C91.6052 15.1932 91.7414 15.6318 92.0145 15.9755C92.1565 16.1237 92.3259 16.2407 92.5125 16.3195C92.6992 16.3983 92.8993 16.4373 93.1009 16.4341L97.1015 16.1995L98.9654 15.9435L99.1611 16.1782L98.8161 17.6126L96.3961 17.7139L96.3447 17.7992C96.6076 18.272 96.7394 18.8108 96.7257 19.3563C96.7271 19.9777 96.5651 20.5879 96.2571 21.1213C95.9104 21.6889 95.4161 22.1435 94.8309 22.433C94.0967 22.8018 93.2885 22.9846 92.4727 22.9663C91.53 23.0226 90.5954 22.7586 89.8108 22.2144C89.5014 21.9801 89.252 21.6711 89.0842 21.3143C88.9164 20.9574 88.8353 20.5635 88.848 20.1668C88.8441 19.5606 89.0485 18.9728 89.4246 18.5084C89.8941 17.9606 90.4814 17.535 91.1392 17.266V17.154C90.7377 16.9093 90.4079 16.5564 90.1848 16.1329C89.9618 15.7094 89.8539 15.2311 89.8726 14.7491C89.8593 14.3094 89.9455 13.8725 90.1243 13.4735C90.3031 13.0744 90.5695 12.7242 90.9023 12.4508C91.7171 11.8361 92.7124 11.5328 93.7187 11.5923C94.1411 11.5975 94.5619 11.6457 94.9751 11.7363ZM92.2977 17.8845C91.2988 18.3964 90.7994 19.0736 90.7994 19.9162C90.7897 20.1407 90.8312 20.3644 90.9207 20.5692C91.0102 20.7739 91.145 20.954 91.3142 21.0946C91.7251 21.4006 92.2249 21.5512 92.7302 21.5212C93.0423 21.5444 93.3558 21.5036 93.6526 21.4011C93.9495 21.2986 94.2239 21.1365 94.4602 20.924C94.6603 20.7142 94.8162 20.4637 94.9181 20.1884C95.02 19.913 95.0657 19.6188 95.0523 19.3243C95.0562 19.0269 95.0038 18.7316 94.8978 18.4551C94.8021 18.2063 94.6524 17.9837 94.4602 17.8045L92.2977 17.8845Z" fill="black"/>
</g>
<g filter="url(#filter3_dd_1205_7709)">
<path d="M16.3267 20.1774C17.036 21.2207 17.3976 22.4749 17.3565 23.7501C17.3959 24.6229 17.236 25.4931 16.8898 26.2899C16.5436 27.0867 16.0208 27.7877 15.3639 28.336C14.0389 29.4451 12.2094 29.9979 9.87526 29.9944H1.91518C1.6573 30.0209 1.39694 29.9879 1.15289 29.8976C0.908845 29.8073 0.6872 29.662 0.503952 29.4723C0.320703 29.2825 0.180423 29.0529 0.0932424 28.8002C0.00606128 28.5474 -0.0258477 28.2778 -0.000182936 28.0107V9.05408C-0.0258477 8.78701 0.00606128 8.51737 0.0932424 8.26462C0.180423 8.01188 0.320703 7.78232 0.503952 7.59254C0.6872 7.40276 0.908845 7.25749 1.15289 7.1672C1.39694 7.07691 1.6573 7.04386 1.91518 7.07044H9.57662C11.8421 7.07044 13.6184 7.60367 14.9057 8.67015C15.9299 9.5893 16.5984 10.8613 16.7877 12.2511C16.977 13.641 16.6743 15.0548 15.9354 16.2315C15.3088 17.1323 14.4298 17.8118 13.4176 18.1778C14.5778 18.4844 15.6033 19.1893 16.3267 20.1774Z" fill="url(#paint2_linear_1205_7709)"/>
</g>
<g filter="url(#filter4_dd_1205_7709)">
<path d="M31.4645 23.036H24.596C23.9662 23.0418 23.3593 22.7915 22.9058 22.3387C22.4523 21.886 22.1884 21.2671 22.1709 20.615V2.54892C22.1884 1.89685 22.4523 1.27794 22.9058 0.825236C23.3593 0.37253 23.9662 0.12219 24.596 0.12803H30.3472C34.7392 0.12803 37.777 3.32746 37.777 7.22543C37.8215 8.44785 37.5053 9.65528 36.8706 10.687C36.236 11.7186 35.3129 12.5256 34.2243 13.0004L34.0595 13.0644L39.1002 19.0633C39.4734 19.5047 39.6704 20.0767 39.6512 20.663C39.6485 20.9837 39.5842 21.3006 39.4618 21.5951C39.3395 21.8897 39.1616 22.156 38.9387 22.3784C38.7157 22.6009 38.4521 22.7751 38.1634 22.8907C37.8746 23.0064 37.5664 23.0612 37.2569 23.0519" fill="url(#paint3_linear_1205_7709)"/>
</g>
<g filter="url(#filter5_dd_1205_7709)">
<path d="M63.835 11.4644C63.835 5.06554 68.16 0.0371094 73.6589 0.0371094C74.9898 0.0418277 76.304 0.345031 77.511 0.925867C78.718 1.5067 79.7892 2.35139 80.651 3.40184C80.9852 3.86335 81.1659 4.42467 81.1659 5.00156C81.1659 6.06804 80.1361 6.67593 79.1064 7.35314C76.048 9.4861 74.5136 10.5099 74.4724 11.2298C74.4364 12.2963 76.1252 13.4854 79.1064 15.5384C80.0434 16.1889 81.1659 16.8235 81.1659 17.8899C81.1659 18.4668 80.9852 19.0281 80.651 19.4897C79.7892 20.5401 78.718 21.3848 77.511 21.9656C76.304 22.5465 74.9898 22.8497 73.6589 22.8544C68.16 22.8864 63.835 17.8419 63.835 11.4644Z" fill="url(#paint4_linear_1205_7709)"/>
</g>
<g filter="url(#filter6_dd_1205_7709)">
<path d="M122.12 20.1348C122.829 21.1804 123.19 22.4361 123.15 23.7129C123.189 24.5857 123.029 25.4558 122.683 26.2526C122.337 27.0494 121.814 27.7504 121.157 28.2987C119.843 29.4007 118.022 29.9518 115.694 29.9518H107.703C107.445 29.9783 107.185 29.9453 106.941 29.855C106.697 29.7647 106.475 29.6194 106.292 29.4297C106.109 29.2399 105.969 29.0103 105.881 28.7576C105.794 28.5048 105.762 28.2352 105.788 27.9681V9.01149C105.773 8.74446 105.811 8.4771 105.9 8.22585C105.988 7.9746 106.125 7.74474 106.303 7.5504C106.491 7.36834 106.712 7.22729 106.953 7.13568C107.195 7.04407 107.452 7.00376 107.708 7.01716H115.37C117.635 7.01716 119.412 7.5504 120.699 8.61688C121.723 9.53602 122.392 10.808 122.581 12.1978C122.77 13.5877 122.468 15.0015 121.729 16.1782C121.104 17.0823 120.225 17.764 119.211 18.1299C120.373 18.4351 121.399 19.1425 122.12 20.1348Z" fill="url(#paint5_linear_1205_7709)"/>
</g>
<g filter="url(#filter7_dd_1205_7709)">
<path d="M137.273 22.9936H130.405C129.775 23.0008 129.168 22.7517 128.715 22.2998C128.261 21.848 127.997 21.2296 127.979 20.578V2.50654C127.997 1.85496 128.261 1.2366 128.715 0.784747C129.168 0.332893 129.775 0.0837275 130.405 0.0909741H136.156C140.548 0.0909741 143.586 3.2904 143.586 7.18838C143.629 8.41065 143.313 9.61777 142.678 10.6493C142.044 11.6808 141.121 12.4879 140.033 12.9634L139.868 13.0273L144.909 19.0263C145.282 19.4677 145.479 20.0396 145.46 20.626C145.457 20.9464 145.393 21.263 145.27 21.5573C145.148 21.8516 144.97 22.1175 144.747 22.3396C144.524 22.5616 144.26 22.7353 143.972 22.8503C143.683 22.9654 143.375 23.0195 143.066 23.0096" fill="url(#paint6_linear_1205_7709)"/>
</g>
<g filter="url(#filter8_dd_1205_7709)">
<path d="M169.644 11.422C169.644 5.02311 173.969 0 179.468 0C180.802 0.000206542 182.121 0.301288 183.332 0.88233C184.543 1.46337 185.617 2.31046 186.48 3.36475C186.825 3.82222 187.017 4.38391 187.026 4.96447C187.026 6.00428 185.965 6.63883 184.966 7.31071C181.903 9.417 180.374 10.4728 180.333 11.1927C180.296 12.2592 181.985 13.4429 184.966 15.5012C185.898 16.1518 187.026 16.7864 187.026 17.8528C187.017 18.4334 186.825 18.9951 186.48 19.4525C185.62 20.5034 184.55 21.3485 183.343 21.9294C182.137 22.5103 180.824 22.8132 179.493 22.8173C173.969 22.8493 169.644 17.8048 169.644 11.422Z" fill="url(#paint7_linear_1205_7709)"/>
</g>
</g>
<defs>
<filter id="filter0_dd_1205_7709" x="116.896" y="-12.9683" width="81.3877" height="86.9204" filterUnits="userSpaceOnUse" color-interpolation-filters="sRGB">
<feFlood flood-opacity="0" result="BackgroundImageFix"/>
<feColorMatrix in="SourceAlpha" type="matrix" values="0 0 0 0 0 0 0 0 0 0 0 0 0 0 0 0 0 0 127 0" result="hardAlpha"/>
<feOffset dy="12"/>
<feGaussianBlur stdDeviation="16"/>
<feColorMatrix type="matrix" values="0 0 0 0 0 0 0 0 0 0 0 0 0 0 0 0 0 0 0.05 0"/>
<feBlend mode="normal" in2="BackgroundImageFix" result="effect1_dropShadow_1205_7709"/>
<feColorMatrix in="SourceAlpha" type="matrix" values="0 0 0 0 0 0 0 0 0 0 0 0 0 0 0 0 0 0 127 0" result="hardAlpha"/>
<feOffset dy="2"/>
<feGaussianBlur stdDeviation="2"/>
<feColorMatrix type="matrix" values="0 0 0 0 0.10936 0 0 0 0 0.0193333 0 0 0 0 0.300667 0 0 0 0.1 0"/>
<feBlend mode="normal" in2="effect1_dropShadow_1205_7709" result="effect2_dropShadow_1205_7709"/>
<feBlend mode="normal" in="SourceGraphic" in2="effect2_dropShadow_1205_7709" result="shape"/>
</filter>
<filter id="filter1_dd_1205_7709" x="13.8711" y="-12.8945" width="75.7139" height="86.8438" filterUnits="userSpaceOnUse" color-interpolation-filters="sRGB">
<feFlood flood-opacity="0" result="BackgroundImageFix"/>
<feColorMatrix in="SourceAlpha" type="matrix" values="0 0 0 0 0 0 0 0 0 0 0 0 0 0 0 0 0 0 127 0" result="hardAlpha"/>
<feOffset dy="12"/>
<feGaussianBlur stdDeviation="16"/>
<feColorMatrix type="matrix" values="0 0 0 0 0 0 0 0 0 0 0 0 0 0 0 0 0 0 0.05 0"/>
<feBlend mode="normal" in2="BackgroundImageFix" result="effect1_dropShadow_1205_7709"/>
<feColorMatrix in="SourceAlpha" type="matrix" values="0 0 0 0 0 0 0 0 0 0 0 0 0 0 0 0 0 0 127 0" result="hardAlpha"/>
<feOffset dy="2"/>
<feGaussianBlur stdDeviation="2"/>
<feColorMatrix type="matrix" values="0 0 0 0 0.10936 0 0 0 0 0.0193333 0 0 0 0 0.300667 0 0 0 0.1 0"/>
<feBlend mode="normal" in2="effect1_dropShadow_1205_7709" result="effect2_dropShadow_1205_7709"/>
<feBlend mode="normal" in="SourceGraphic" in2="effect2_dropShadow_1205_7709" result="shape"/>
</filter>
<filter id="filter2_dd_1205_7709" x="56.8467" y="-8.41504" width="74.3145" height="75.3887" filterUnits="userSpaceOnUse" color-interpolation-filters="sRGB">
<feFlood flood-opacity="0" result="BackgroundImageFix"/>
<feColorMatrix in="SourceAlpha" type="matrix" values="0 0 0 0 0 0 0 0 0 0 0 0 0 0 0 0 0 0 127 0" result="hardAlpha"/>
<feOffset dy="12"/>
<feGaussianBlur stdDeviation="16"/>
<feColorMatrix type="matrix" values="0 0 0 0 0 0 0 0 0 0 0 0 0 0 0 0 0 0 0.05 0"/>
<feBlend mode="normal" in2="BackgroundImageFix" result="effect1_dropShadow_1205_7709"/>
<feColorMatrix in="SourceAlpha" type="matrix" values="0 0 0 0 0 0 0 0 0 0 0 0 0 0 0 0 0 0 127 0" result="hardAlpha"/>
<feOffset dy="2"/>
<feGaussianBlur stdDeviation="2"/>
<feColorMatrix type="matrix" values="0 0 0 0 0.10936 0 0 0 0 0.0193333 0 0 0 0 0.300667 0 0 0 0.1 0"/>
<feBlend mode="normal" in2="effect1_dropShadow_1205_7709" result="effect2_dropShadow_1205_7709"/>
<feBlend mode="normal" in="SourceGraphic" in2="effect2_dropShadow_1205_7709" result="shape"/>
</filter>
<filter id="filter3_dd_1205_7709" x="-32.0088" y="-12.9385" width="81.3711" height="86.9419" filterUnits="userSpaceOnUse" color-interpolation-filters="sRGB">
<feFlood flood-opacity="0" result="BackgroundImageFix"/>
<feColorMatrix in="SourceAlpha" type="matrix" values="0 0 0 0 0 0 0 0 0 0 0 0 0 0 0 0 0 0 127 0" result="hardAlpha"/>
<feOffset dy="12"/>
<feGaussianBlur stdDeviation="16"/>
<feColorMatrix type="matrix" values="0 0 0 0 0 0 0 0 0 0 0 0 0 0 0 0 0 0 0.05 0"/>
<feBlend mode="normal" in2="BackgroundImageFix" result="effect1_dropShadow_1205_7709"/>
<feColorMatrix in="SourceAlpha" type="matrix" values="0 0 0 0 0 0 0 0 0 0 0 0 0 0 0 0 0 0 127 0" result="hardAlpha"/>
<feOffset dy="2"/>
<feGaussianBlur stdDeviation="2"/>
<feColorMatrix type="matrix" values="0 0 0 0 0.10936 0 0 0 0 0.0193333 0 0 0 0 0.300667 0 0 0 0.1 0"/>
<feBlend mode="normal" in2="effect1_dropShadow_1205_7709" result="effect2_dropShadow_1205_7709"/>
<feBlend mode="normal" in="SourceGraphic" in2="effect2_dropShadow_1205_7709" result="shape"/>
</filter>
<filter id="filter4_dd_1205_7709" x="-9.8291" y="-19.8721" width="81.4814" height="86.9248" filterUnits="userSpaceOnUse" color-interpolation-filters="sRGB">
<feFlood flood-opacity="0" result="BackgroundImageFix"/>
<feColorMatrix in="SourceAlpha" type="matrix" values="0 0 0 0 0 0 0 0 0 0 0 0 0 0 0 0 0 0 127 0" result="hardAlpha"/>
<feOffset dy="12"/>
<feGaussianBlur stdDeviation="16"/>
<feColorMatrix type="matrix" values="0 0 0 0 0 0 0 0 0 0 0 0 0 0 0 0 0 0 0.05 0"/>
<feBlend mode="normal" in2="BackgroundImageFix" result="effect1_dropShadow_1205_7709"/>
<feColorMatrix in="SourceAlpha" type="matrix" values="0 0 0 0 0 0 0 0 0 0 0 0 0 0 0 0 0 0 127 0" result="hardAlpha"/>
<feOffset dy="2"/>
<feGaussianBlur stdDeviation="2"/>
<feColorMatrix type="matrix" values="0 0 0 0 0.10936 0 0 0 0 0.0193333 0 0 0 0 0.300667 0 0 0 0.1 0"/>
<feBlend mode="normal" in2="effect1_dropShadow_1205_7709" result="effect2_dropShadow_1205_7709"/>
<feBlend mode="normal" in="SourceGraphic" in2="effect2_dropShadow_1205_7709" result="shape"/>
</filter>
<filter id="filter5_dd_1205_7709" x="31.835" y="-19.9629" width="81.3311" height="86.8174" filterUnits="userSpaceOnUse" color-interpolation-filters="sRGB">
<feFlood flood-opacity="0" result="BackgroundImageFix"/>
<feColorMatrix in="SourceAlpha" type="matrix" values="0 0 0 0 0 0 0 0 0 0 0 0 0 0 0 0 0 0 127 0" result="hardAlpha"/>
<feOffset dy="12"/>
<feGaussianBlur stdDeviation="16"/>
<feColorMatrix type="matrix" values="0 0 0 0 0 0 0 0 0 0 0 0 0 0 0 0 0 0 0.05 0"/>
<feBlend mode="normal" in2="BackgroundImageFix" result="effect1_dropShadow_1205_7709"/>
<feColorMatrix in="SourceAlpha" type="matrix" values="0 0 0 0 0 0 0 0 0 0 0 0 0 0 0 0 0 0 127 0" result="hardAlpha"/>
<feOffset dy="2"/>
<feGaussianBlur stdDeviation="2"/>
<feColorMatrix type="matrix" values="0 0 0 0 0.10936 0 0 0 0 0.0193333 0 0 0 0 0.300667 0 0 0 0.1 0"/>
<feBlend mode="normal" in2="effect1_dropShadow_1205_7709" result="effect2_dropShadow_1205_7709"/>
<feBlend mode="normal" in="SourceGraphic" in2="effect2_dropShadow_1205_7709" result="shape"/>
</filter>
<filter id="filter6_dd_1205_7709" x="73.7793" y="-12.9854" width="81.376" height="86.9458" filterUnits="userSpaceOnUse" color-interpolation-filters="sRGB">
<feFlood flood-opacity="0" result="BackgroundImageFix"/>
<feColorMatrix in="SourceAlpha" type="matrix" values="0 0 0 0 0 0 0 0 0 0 0 0 0 0 0 0 0 0 127 0" result="hardAlpha"/>
<feOffset dy="12"/>
<feGaussianBlur stdDeviation="16"/>
<feColorMatrix type="matrix" values="0 0 0 0 0 0 0 0 0 0 0 0 0 0 0 0 0 0 0.05 0"/>
<feBlend mode="normal" in2="BackgroundImageFix" result="effect1_dropShadow_1205_7709"/>
<feColorMatrix in="SourceAlpha" type="matrix" values="0 0 0 0 0 0 0 0 0 0 0 0 0 0 0 0 0 0 127 0" result="hardAlpha"/>
<feOffset dy="2"/>
<feGaussianBlur stdDeviation="2"/>
<feColorMatrix type="matrix" values="0 0 0 0 0.10936 0 0 0 0 0.0193333 0 0 0 0 0.300667 0 0 0 0.1 0"/>
<feBlend mode="normal" in2="effect1_dropShadow_1205_7709" result="effect2_dropShadow_1205_7709"/>
<feBlend mode="normal" in="SourceGraphic" in2="effect2_dropShadow_1205_7709" result="shape"/>
</filter>
<filter id="filter7_dd_1205_7709" x="95.9795" y="-19.9092" width="81.4814" height="86.9199" filterUnits="userSpaceOnUse" color-interpolation-filters="sRGB">
<feFlood flood-opacity="0" result="BackgroundImageFix"/>
<feColorMatrix in="SourceAlpha" type="matrix" values="0 0 0 0 0 0 0 0 0 0 0 0 0 0 0 0 0 0 127 0" result="hardAlpha"/>
<feOffset dy="12"/>
<feGaussianBlur stdDeviation="16"/>
<feColorMatrix type="matrix" values="0 0 0 0 0 0 0 0 0 0 0 0 0 0 0 0 0 0 0.05 0"/>
<feBlend mode="normal" in2="BackgroundImageFix" result="effect1_dropShadow_1205_7709"/>
<feColorMatrix in="SourceAlpha" type="matrix" values="0 0 0 0 0 0 0 0 0 0 0 0 0 0 0 0 0 0 127 0" result="hardAlpha"/>
<feOffset dy="2"/>
<feGaussianBlur stdDeviation="2"/>
<feColorMatrix type="matrix" values="0 0 0 0 0.10936 0 0 0 0 0.0193333 0 0 0 0 0.300667 0 0 0 0.1 0"/>
<feBlend mode="normal" in2="effect1_dropShadow_1205_7709" result="effect2_dropShadow_1205_7709"/>
<feBlend mode="normal" in="SourceGraphic" in2="effect2_dropShadow_1205_7709" result="shape"/>
</filter>
<filter id="filter8_dd_1205_7709" x="137.644" y="-20" width="81.3828" height="86.8174" filterUnits="userSpaceOnUse" color-interpolation-filters="sRGB">
<feFlood flood-opacity="0" result="BackgroundImageFix"/>
<feColorMatrix in="SourceAlpha" type="matrix" values="0 0 0 0 0 0 0 0 0 0 0 0 0 0 0 0 0 0 127 0" result="hardAlpha"/>
<feOffset dy="12"/>
<feGaussianBlur stdDeviation="16"/>
<feColorMatrix type="matrix" values="0 0 0 0 0 0 0 0 0 0 0 0 0 0 0 0 0 0 0.05 0"/>
<feBlend mode="normal" in2="BackgroundImageFix" result="effect1_dropShadow_1205_7709"/>
<feColorMatrix in="SourceAlpha" type="matrix" values="0 0 0 0 0 0 0 0 0 0 0 0 0 0 0 0 0 0 127 0" result="hardAlpha"/>
<feOffset dy="2"/>
<feGaussianBlur stdDeviation="2"/>
<feColorMatrix type="matrix" values="0 0 0 0 0.10936 0 0 0 0 0.0193333 0 0 0 0 0.300667 0 0 0 0.1 0"/>
<feBlend mode="normal" in2="effect1_dropShadow_1205_7709" result="effect2_dropShadow_1205_7709"/>
<feBlend mode="normal" in="SourceGraphic" in2="effect2_dropShadow_1205_7709" result="shape"/>
</filter>
<linearGradient id="paint0_linear_1205_7709" x1="148.881" y1="20.7357" x2="166.267" y2="20.7357" gradientUnits="userSpaceOnUse">
<stop stop-color="#ECA04A"/>
<stop offset="1" stop-color="#F59E3D"/>
</linearGradient>
<linearGradient id="paint1_linear_1205_7709" x1="45.8711" y1="18.5273" x2="57.5846" y2="18.5273" gradientUnits="userSpaceOnUse">
<stop stop-color="#DA7F56"/>
<stop offset="1" stop-color="#D37B55"/>
</linearGradient>
<linearGradient id="paint2_linear_1205_7709" x1="0.00496179" y1="18.5356" x2="17.3618" y2="18.5356" gradientUnits="userSpaceOnUse">
<stop stop-color="#84B0A0"/>
<stop offset="1" stop-color="#81AE9E"/>
</linearGradient>
<linearGradient id="paint3_linear_1205_7709" x1="22.1555" y1="13.8345" x2="39.6354" y2="13.8345" gradientUnits="userSpaceOnUse">
<stop stop-color="#ECA04A"/>
<stop offset="1" stop-color="#F59E3D"/>
</linearGradient>
<linearGradient id="paint4_linear_1205_7709" x1="2239.39" y1="6933.34" x2="2823.78" y2="6933.34" gradientUnits="userSpaceOnUse">
<stop stop-color="#C95F63"/>
<stop offset="1" stop-color="#C05863"/>
</linearGradient>
<linearGradient id="paint5_linear_1205_7709" x1="2287.03" y1="6979.39" x2="2872.96" y2="6979.39" gradientUnits="userSpaceOnUse">
<stop stop-color="#C95F63"/>
<stop offset="1" stop-color="#C05863"/>
</linearGradient>
<linearGradient id="paint6_linear_1205_7709" x1="127.979" y1="11.5507" x2="145.461" y2="11.5507" gradientUnits="userSpaceOnUse">
<stop stop-color="#DA7F56"/>
<stop offset="1" stop-color="#D37B55"/>
</linearGradient>
<linearGradient id="paint7_linear_1205_7709" x1="169.657" y1="11.4119" x2="187.025" y2="11.4119" gradientUnits="userSpaceOnUse">
<stop stop-color="#84B0A0"/>
<stop offset="1" stop-color="#81AE9E"/>
</linearGradient>
<clipPath id="clip0_1205_7709">
<rect width="187" height="30" fill="white"/>
</clipPath>
</defs>
</svg>
