<svg width="184" height="148" viewBox="0 0 184 148" fill="none" xmlns="http://www.w3.org/2000/svg">
<g clip-path="url(#clip0_1205_9896)">
<g filter="url(#filter0_dd_1205_9896)">
<path d="M169.19 2H14.62C7.65017 2 2 7.65017 2 14.62V133.1C2 140.07 7.65017 145.72 14.62 145.72H169.19C176.16 145.72 181.81 140.07 181.81 133.1V14.62C181.81 7.65017 176.16 2 169.19 2Z" stroke="black" stroke-width="4" stroke-miterlimit="10"/>
</g>
<g filter="url(#filter1_dd_1205_9896)">
<path d="M104.5 132.16C101.866 130.282 99.8342 127.68 98.6503 124.67C95.9239 117.314 95.9239 109.225 98.6503 101.87C99.8332 98.8672 101.866 96.2747 104.5 94.41C107.189 92.6967 110.312 91.7866 113.5 91.7866C116.689 91.7866 119.811 92.6967 122.5 94.41C125.126 96.2788 127.151 98.8707 128.33 101.87C131.057 109.225 131.057 117.314 128.33 124.67C127.146 127.68 125.114 130.282 122.48 132.16C119.81 133.864 116.708 134.769 113.54 134.769C110.373 134.769 107.271 133.864 104.6 132.16H104.5Z" fill="url(#paint0_linear_1205_9896)"/>
</g>
<g filter="url(#filter2_dd_1205_9896)">
<path d="M105.1 54.9498C103.04 54.2298 102.01 53.2899 102.01 52.1399V16.9999C102.01 15.8499 103.01 14.9198 105.1 14.2198C107.763 13.4547 110.531 13.1171 113.3 13.2198C116.128 13.1104 118.956 13.4478 121.68 14.2198C123.68 14.9198 124.77 15.8499 124.77 16.9999V52.0998C124.77 53.2499 123.77 54.1898 121.68 54.9098C118.96 55.7024 116.131 56.0535 113.3 55.9498C110.53 56.0595 107.762 55.7218 105.1 54.9498Z" fill="#DA7F57"/>
</g>
<g filter="url(#filter3_dd_1205_9896)">
<path d="M96.0204 63.6398C96.9304 63.8304 97.8233 64.0946 98.6904 64.4298L97.6904 67.5598L97.1704 67.7198C95.8884 66.8554 94.3947 66.3575 92.8504 66.2798C91.9701 66.2281 91.1016 66.5022 90.4104 67.0499C90.1064 67.3343 89.8697 67.683 89.7175 68.0705C89.5652 68.458 89.5013 68.8745 89.5304 69.2898C89.4741 70.1243 89.7348 70.9493 90.2604 71.5998C90.5369 71.8768 90.866 72.0956 91.2284 72.2433C91.5908 72.3911 91.9791 72.4647 92.3704 72.4598L100.15 72.0098L103.77 71.5298L104.15 71.9798L103.48 74.6698L98.7704 74.8598L98.6804 75.0199C99.1877 75.9039 99.4404 76.911 99.4104 77.9298C99.4209 79.0963 99.1058 80.2426 98.5004 81.2398C97.8328 82.3115 96.8713 83.1689 95.7304 83.7098C94.3025 84.3791 92.7366 84.7012 91.1604 84.6498C89.3295 84.7554 87.5142 84.2603 85.9904 83.2398C85.387 82.8029 84.9006 82.2239 84.5745 81.5541C84.2483 80.8842 84.0923 80.1443 84.1204 79.3998C84.1135 78.2663 84.5106 77.1673 85.2404 76.2999C86.1445 75.2617 87.2873 74.4587 88.5704 73.9598V73.8398C87.7873 73.3815 87.1437 72.7186 86.7086 71.9224C86.2735 71.1261 86.0632 70.2265 86.1004 69.3198C86.073 68.4964 86.2398 67.6782 86.5872 66.9312C86.9347 66.1841 87.453 65.5294 88.1004 65.0199C89.6786 63.8575 91.6138 63.2843 93.5704 63.3998C94.393 63.399 95.2136 63.4794 96.0204 63.6398ZM90.8204 75.1798C88.8738 76.1398 87.9004 77.4098 87.9004 78.9898C87.8808 79.411 87.9611 79.8308 88.135 80.215C88.3088 80.5991 88.5711 80.9366 88.9004 81.1998C89.6976 81.7751 90.669 82.0577 91.6504 81.9998C92.874 82.0822 94.0809 81.6799 95.0104 80.8798C95.3991 80.4864 95.7019 80.0167 95.8999 79.5004C96.0978 78.984 96.1865 78.4322 96.1604 77.8798C96.1679 77.3189 96.066 76.7618 95.8604 76.2398C95.6707 75.7782 95.3803 75.3648 95.0104 75.0298L90.8204 75.1798Z" fill="black"/>
</g>
<g filter="url(#filter4_dd_1205_9896)">
<path d="M44.5902 37.5801C45.9699 39.5392 46.6722 41.8953 46.5902 44.2901C46.666 45.9268 46.3551 47.5583 45.6827 49.0525C45.0104 50.5466 43.9954 51.8614 42.7202 52.8901C40.1402 54.9634 36.5902 56.0001 32.0702 56.0001H16.6002C16.1014 56.0253 15.6025 55.9497 15.1335 55.7779C14.6645 55.6061 14.2348 55.3415 13.8702 55.0001C13.5251 54.636 13.2583 54.205 13.0863 53.7337C12.9143 53.2625 12.8408 52.7609 12.8702 52.2601V16.7201C12.8204 16.2193 12.8824 15.7136 13.0517 15.2396C13.221 14.7656 13.4934 14.3351 13.8493 13.9792C14.2053 13.6233 14.6357 13.3509 15.1097 13.1816C15.5837 13.0122 16.0894 12.9503 16.5902 13.0001H31.5002C35.9002 13.0001 39.3502 14.0001 41.8502 16.0001C43.8396 17.7238 45.1379 20.1092 45.5056 22.7156C45.8732 25.322 45.2852 27.9734 43.8502 30.1801C42.631 31.8696 40.9249 33.1465 38.9602 33.8401C41.2071 34.4114 43.1926 35.7304 44.5902 37.5801Z" fill="url(#paint1_linear_1205_9896)"/>
</g>
<g filter="url(#filter5_dd_1205_9896)">
<path d="M73.9904 55.99H60.6404C59.4181 56.0009 58.2405 55.5311 57.3613 54.6818C56.4821 53.8326 55.9719 52.6719 55.9404 51.45V17.57C55.9719 16.348 56.4821 15.1873 57.3613 14.3381C58.2405 13.4889 59.4181 13.0191 60.6404 13.03H71.8104C80.3404 13.03 86.2404 19.03 86.2404 26.34C86.3268 28.6324 85.7128 30.8968 84.4801 32.8315C83.2475 34.7662 81.4546 36.2796 79.3404 37.17L79.0304 37.29L88.8104 48.55C89.5371 49.3767 89.9199 50.45 89.8804 51.55C89.8753 52.1504 89.7506 52.7438 89.5137 53.2955C89.2767 53.8472 88.9321 54.3462 88.5002 54.7633C88.0682 55.1803 87.5574 55.5072 86.9978 55.7247C86.4381 55.9421 85.8407 56.0459 85.2404 56.03" fill="url(#paint2_linear_1205_9896)"/>
</g>
<g filter="url(#filter6_dd_1205_9896)">
<path d="M136.87 34.5799C136.87 22.5799 145.27 13.1499 155.94 13.1499C158.522 13.1596 161.071 13.7288 163.412 14.8181C165.753 15.9074 167.83 17.491 169.5 19.4599C170.145 20.3277 170.495 21.3789 170.5 22.4599C170.5 24.4599 168.5 25.5999 166.5 26.8599C160.56 30.8599 157.59 32.7899 157.5 34.1299C157.43 36.1299 160.72 38.3599 166.5 42.2199C168.32 43.4399 170.5 44.6199 170.5 46.6199C170.495 47.7009 170.145 48.7521 169.5 49.6199C167.828 51.5914 165.747 53.1765 163.403 54.2659C161.058 55.3553 158.505 55.9231 155.92 55.9299C145.27 56.0099 136.87 46.5399 136.87 34.5799Z" fill="url(#paint3_linear_1205_9896)"/>
</g>
<g filter="url(#filter7_dd_1205_9896)">
<path d="M44.7404 116.39C46.118 118.347 46.8202 120.699 46.7404 123.09C46.817 124.727 46.5064 126.359 45.834 127.853C45.1616 129.347 44.1462 130.662 42.8704 131.69C40.2904 133.77 36.7404 134.807 32.2204 134.8H16.7504C16.2495 134.85 15.7439 134.788 15.2699 134.619C14.7959 134.449 14.3654 134.177 14.0095 133.821C13.6536 133.465 13.3812 133.035 13.2118 132.561C13.0425 132.087 12.9805 131.581 13.0304 131.08V95.5302C12.9805 95.0293 13.0425 94.5237 13.2118 94.0497C13.3812 93.5757 13.6536 93.1452 14.0095 92.7893C14.3654 92.4334 14.7959 92.161 15.2699 91.9916C15.7439 91.8223 16.2495 91.7603 16.7504 91.8102H31.6304C36.0304 91.8102 39.4804 92.7935 41.9804 94.7602C43.9697 96.4839 45.2681 98.8692 45.6357 101.476C46.0033 104.082 45.4154 106.733 43.9804 108.94C42.7672 110.636 41.0591 111.914 39.0904 112.6C41.3493 113.186 43.3418 114.522 44.7404 116.39Z" fill="url(#paint4_linear_1205_9896)"/>
</g>
<g filter="url(#filter8_dd_1205_9896)">
<path d="M74.1396 134.76H60.7996C59.5782 134.773 58.4006 134.306 57.5211 133.458C56.6417 132.611 56.1311 131.451 56.0996 130.23V96.3399C56.1311 95.1188 56.6417 93.9592 57.5211 93.1115C58.4006 92.2639 59.5782 91.7963 60.7996 91.8099H71.9696C80.4996 91.8099 86.3996 97.8099 86.3996 105.12C86.486 107.412 85.8719 109.677 84.6393 111.611C83.4066 113.546 81.6138 115.059 79.4996 115.95L79.1896 116.07L88.9696 127.32C89.6945 128.148 90.077 129.22 90.0396 130.32C90.0345 130.92 89.9098 131.513 89.6727 132.064C89.4356 132.615 89.0909 133.113 88.6588 133.53C88.2267 133.946 87.7158 134.272 87.1562 134.488C86.5966 134.705 85.9994 134.807 85.3996 134.79" fill="url(#paint5_linear_1205_9896)"/>
</g>
<g filter="url(#filter9_dd_1205_9896)">
<path d="M137.02 113.31C137.02 101.31 145.42 91.8799 156.09 91.8799C158.675 91.8874 161.227 92.4554 163.572 93.5448C165.916 94.6341 167.997 96.2189 169.67 98.1899C170.337 99.0491 170.705 100.102 170.72 101.19C170.72 103.19 168.67 104.33 166.72 105.6C160.78 109.55 157.81 111.52 157.72 112.87C157.65 114.87 160.94 117.1 166.72 120.95C168.54 122.17 170.72 123.36 170.72 125.36C170.705 126.447 170.337 127.501 169.67 128.36C167.997 130.331 165.916 131.916 163.572 133.005C161.227 134.094 158.675 134.662 156.09 134.67C145.42 134.73 137.02 125.27 137.02 113.31Z" fill="url(#paint6_linear_1205_9896)"/>
</g>
</g>
<defs>
<filter id="filter0_dd_1205_9896" x="-32" y="-20" width="247.81" height="211.72" filterUnits="userSpaceOnUse" color-interpolation-filters="sRGB">
<feFlood flood-opacity="0" result="BackgroundImageFix"/>
<feColorMatrix in="SourceAlpha" type="matrix" values="0 0 0 0 0 0 0 0 0 0 0 0 0 0 0 0 0 0 127 0" result="hardAlpha"/>
<feOffset dy="12"/>
<feGaussianBlur stdDeviation="16"/>
<feColorMatrix type="matrix" values="0 0 0 0 0 0 0 0 0 0 0 0 0 0 0 0 0 0 0.05 0"/>
<feBlend mode="normal" in2="BackgroundImageFix" result="effect1_dropShadow_1205_9896"/>
<feColorMatrix in="SourceAlpha" type="matrix" values="0 0 0 0 0 0 0 0 0 0 0 0 0 0 0 0 0 0 127 0" result="hardAlpha"/>
<feOffset dy="2"/>
<feGaussianBlur stdDeviation="2"/>
<feColorMatrix type="matrix" values="0 0 0 0 0.10936 0 0 0 0 0.0193333 0 0 0 0 0.300667 0 0 0 0.1 0"/>
<feBlend mode="normal" in2="effect1_dropShadow_1205_9896" result="effect2_dropShadow_1205_9896"/>
<feBlend mode="normal" in="SourceGraphic" in2="effect2_dropShadow_1205_9896" result="shape"/>
</filter>
<filter id="filter1_dd_1205_9896" x="64.6055" y="71.7866" width="97.7695" height="106.982" filterUnits="userSpaceOnUse" color-interpolation-filters="sRGB">
<feFlood flood-opacity="0" result="BackgroundImageFix"/>
<feColorMatrix in="SourceAlpha" type="matrix" values="0 0 0 0 0 0 0 0 0 0 0 0 0 0 0 0 0 0 127 0" result="hardAlpha"/>
<feOffset dy="12"/>
<feGaussianBlur stdDeviation="16"/>
<feColorMatrix type="matrix" values="0 0 0 0 0 0 0 0 0 0 0 0 0 0 0 0 0 0 0.05 0"/>
<feBlend mode="normal" in2="BackgroundImageFix" result="effect1_dropShadow_1205_9896"/>
<feColorMatrix in="SourceAlpha" type="matrix" values="0 0 0 0 0 0 0 0 0 0 0 0 0 0 0 0 0 0 127 0" result="hardAlpha"/>
<feOffset dy="2"/>
<feGaussianBlur stdDeviation="2"/>
<feColorMatrix type="matrix" values="0 0 0 0 0.10936 0 0 0 0 0.0193333 0 0 0 0 0.300667 0 0 0 0.1 0"/>
<feBlend mode="normal" in2="effect1_dropShadow_1205_9896" result="effect2_dropShadow_1205_9896"/>
<feBlend mode="normal" in="SourceGraphic" in2="effect2_dropShadow_1205_9896" result="shape"/>
</filter>
<filter id="filter2_dd_1205_9896" x="70.0098" y="-6.80029" width="86.7598" height="106.771" filterUnits="userSpaceOnUse" color-interpolation-filters="sRGB">
<feFlood flood-opacity="0" result="BackgroundImageFix"/>
<feColorMatrix in="SourceAlpha" type="matrix" values="0 0 0 0 0 0 0 0 0 0 0 0 0 0 0 0 0 0 127 0" result="hardAlpha"/>
<feOffset dy="12"/>
<feGaussianBlur stdDeviation="16"/>
<feColorMatrix type="matrix" values="0 0 0 0 0 0 0 0 0 0 0 0 0 0 0 0 0 0 0.05 0"/>
<feBlend mode="normal" in2="BackgroundImageFix" result="effect1_dropShadow_1205_9896"/>
<feColorMatrix in="SourceAlpha" type="matrix" values="0 0 0 0 0 0 0 0 0 0 0 0 0 0 0 0 0 0 127 0" result="hardAlpha"/>
<feOffset dy="2"/>
<feGaussianBlur stdDeviation="2"/>
<feColorMatrix type="matrix" values="0 0 0 0 0.10936 0 0 0 0 0.0193333 0 0 0 0 0.300667 0 0 0 0.1 0"/>
<feBlend mode="normal" in2="effect1_dropShadow_1205_9896" result="effect2_dropShadow_1205_9896"/>
<feBlend mode="normal" in="SourceGraphic" in2="effect2_dropShadow_1205_9896" result="shape"/>
</filter>
<filter id="filter3_dd_1205_9896" x="52.1172" y="43.3853" width="84.0332" height="85.2783" filterUnits="userSpaceOnUse" color-interpolation-filters="sRGB">
<feFlood flood-opacity="0" result="BackgroundImageFix"/>
<feColorMatrix in="SourceAlpha" type="matrix" values="0 0 0 0 0 0 0 0 0 0 0 0 0 0 0 0 0 0 127 0" result="hardAlpha"/>
<feOffset dy="12"/>
<feGaussianBlur stdDeviation="16"/>
<feColorMatrix type="matrix" values="0 0 0 0 0 0 0 0 0 0 0 0 0 0 0 0 0 0 0.05 0"/>
<feBlend mode="normal" in2="BackgroundImageFix" result="effect1_dropShadow_1205_9896"/>
<feColorMatrix in="SourceAlpha" type="matrix" values="0 0 0 0 0 0 0 0 0 0 0 0 0 0 0 0 0 0 127 0" result="hardAlpha"/>
<feOffset dy="2"/>
<feGaussianBlur stdDeviation="2"/>
<feColorMatrix type="matrix" values="0 0 0 0 0.10936 0 0 0 0 0.0193333 0 0 0 0 0.300667 0 0 0 0.1 0"/>
<feBlend mode="normal" in2="effect1_dropShadow_1205_9896" result="effect2_dropShadow_1205_9896"/>
<feBlend mode="normal" in="SourceGraphic" in2="effect2_dropShadow_1205_9896" result="shape"/>
</filter>
<filter id="filter4_dd_1205_9896" x="-19.1465" y="-7.0166" width="97.748" height="107.021" filterUnits="userSpaceOnUse" color-interpolation-filters="sRGB">
<feFlood flood-opacity="0" result="BackgroundImageFix"/>
<feColorMatrix in="SourceAlpha" type="matrix" values="0 0 0 0 0 0 0 0 0 0 0 0 0 0 0 0 0 0 127 0" result="hardAlpha"/>
<feOffset dy="12"/>
<feGaussianBlur stdDeviation="16"/>
<feColorMatrix type="matrix" values="0 0 0 0 0 0 0 0 0 0 0 0 0 0 0 0 0 0 0.05 0"/>
<feBlend mode="normal" in2="BackgroundImageFix" result="effect1_dropShadow_1205_9896"/>
<feColorMatrix in="SourceAlpha" type="matrix" values="0 0 0 0 0 0 0 0 0 0 0 0 0 0 0 0 0 0 127 0" result="hardAlpha"/>
<feOffset dy="2"/>
<feGaussianBlur stdDeviation="2"/>
<feColorMatrix type="matrix" values="0 0 0 0 0.10936 0 0 0 0 0.0193333 0 0 0 0 0.300667 0 0 0 0.1 0"/>
<feBlend mode="normal" in2="effect1_dropShadow_1205_9896" result="effect2_dropShadow_1205_9896"/>
<feBlend mode="normal" in="SourceGraphic" in2="effect2_dropShadow_1205_9896" result="shape"/>
</filter>
<filter id="filter5_dd_1205_9896" x="23.9404" y="-6.97021" width="97.9424" height="107.002" filterUnits="userSpaceOnUse" color-interpolation-filters="sRGB">
<feFlood flood-opacity="0" result="BackgroundImageFix"/>
<feColorMatrix in="SourceAlpha" type="matrix" values="0 0 0 0 0 0 0 0 0 0 0 0 0 0 0 0 0 0 127 0" result="hardAlpha"/>
<feOffset dy="12"/>
<feGaussianBlur stdDeviation="16"/>
<feColorMatrix type="matrix" values="0 0 0 0 0 0 0 0 0 0 0 0 0 0 0 0 0 0 0.05 0"/>
<feBlend mode="normal" in2="BackgroundImageFix" result="effect1_dropShadow_1205_9896"/>
<feColorMatrix in="SourceAlpha" type="matrix" values="0 0 0 0 0 0 0 0 0 0 0 0 0 0 0 0 0 0 127 0" result="hardAlpha"/>
<feOffset dy="2"/>
<feGaussianBlur stdDeviation="2"/>
<feColorMatrix type="matrix" values="0 0 0 0 0.10936 0 0 0 0 0.0193333 0 0 0 0 0.300667 0 0 0 0.1 0"/>
<feBlend mode="normal" in2="effect1_dropShadow_1205_9896" result="effect2_dropShadow_1205_9896"/>
<feBlend mode="normal" in="SourceGraphic" in2="effect2_dropShadow_1205_9896" result="shape"/>
</filter>
<filter id="filter6_dd_1205_9896" x="104.87" y="-6.8501" width="97.6299" height="106.78" filterUnits="userSpaceOnUse" color-interpolation-filters="sRGB">
<feFlood flood-opacity="0" result="BackgroundImageFix"/>
<feColorMatrix in="SourceAlpha" type="matrix" values="0 0 0 0 0 0 0 0 0 0 0 0 0 0 0 0 0 0 127 0" result="hardAlpha"/>
<feOffset dy="12"/>
<feGaussianBlur stdDeviation="16"/>
<feColorMatrix type="matrix" values="0 0 0 0 0 0 0 0 0 0 0 0 0 0 0 0 0 0 0.05 0"/>
<feBlend mode="normal" in2="BackgroundImageFix" result="effect1_dropShadow_1205_9896"/>
<feColorMatrix in="SourceAlpha" type="matrix" values="0 0 0 0 0 0 0 0 0 0 0 0 0 0 0 0 0 0 127 0" result="hardAlpha"/>
<feOffset dy="2"/>
<feGaussianBlur stdDeviation="2"/>
<feColorMatrix type="matrix" values="0 0 0 0 0.10936 0 0 0 0 0.0193333 0 0 0 0 0.300667 0 0 0 0.1 0"/>
<feBlend mode="normal" in2="effect1_dropShadow_1205_9896" result="effect2_dropShadow_1205_9896"/>
<feBlend mode="normal" in="SourceGraphic" in2="effect2_dropShadow_1205_9896" result="shape"/>
</filter>
<filter id="filter7_dd_1205_9896" x="-18.9863" y="71.7935" width="97.7383" height="107.023" filterUnits="userSpaceOnUse" color-interpolation-filters="sRGB">
<feFlood flood-opacity="0" result="BackgroundImageFix"/>
<feColorMatrix in="SourceAlpha" type="matrix" values="0 0 0 0 0 0 0 0 0 0 0 0 0 0 0 0 0 0 127 0" result="hardAlpha"/>
<feOffset dy="12"/>
<feGaussianBlur stdDeviation="16"/>
<feColorMatrix type="matrix" values="0 0 0 0 0 0 0 0 0 0 0 0 0 0 0 0 0 0 0.05 0"/>
<feBlend mode="normal" in2="BackgroundImageFix" result="effect1_dropShadow_1205_9896"/>
<feColorMatrix in="SourceAlpha" type="matrix" values="0 0 0 0 0 0 0 0 0 0 0 0 0 0 0 0 0 0 127 0" result="hardAlpha"/>
<feOffset dy="2"/>
<feGaussianBlur stdDeviation="2"/>
<feColorMatrix type="matrix" values="0 0 0 0 0.10936 0 0 0 0 0.0193333 0 0 0 0 0.300667 0 0 0 0.1 0"/>
<feBlend mode="normal" in2="effect1_dropShadow_1205_9896" result="effect2_dropShadow_1205_9896"/>
<feBlend mode="normal" in="SourceGraphic" in2="effect2_dropShadow_1205_9896" result="shape"/>
</filter>
<filter id="filter8_dd_1205_9896" x="24.0996" y="71.8096" width="97.9424" height="106.982" filterUnits="userSpaceOnUse" color-interpolation-filters="sRGB">
<feFlood flood-opacity="0" result="BackgroundImageFix"/>
<feColorMatrix in="SourceAlpha" type="matrix" values="0 0 0 0 0 0 0 0 0 0 0 0 0 0 0 0 0 0 127 0" result="hardAlpha"/>
<feOffset dy="12"/>
<feGaussianBlur stdDeviation="16"/>
<feColorMatrix type="matrix" values="0 0 0 0 0 0 0 0 0 0 0 0 0 0 0 0 0 0 0.05 0"/>
<feBlend mode="normal" in2="BackgroundImageFix" result="effect1_dropShadow_1205_9896"/>
<feColorMatrix in="SourceAlpha" type="matrix" values="0 0 0 0 0 0 0 0 0 0 0 0 0 0 0 0 0 0 127 0" result="hardAlpha"/>
<feOffset dy="2"/>
<feGaussianBlur stdDeviation="2"/>
<feColorMatrix type="matrix" values="0 0 0 0 0.10936 0 0 0 0 0.0193333 0 0 0 0 0.300667 0 0 0 0.1 0"/>
<feBlend mode="normal" in2="effect1_dropShadow_1205_9896" result="effect2_dropShadow_1205_9896"/>
<feBlend mode="normal" in="SourceGraphic" in2="effect2_dropShadow_1205_9896" result="shape"/>
</filter>
<filter id="filter9_dd_1205_9896" x="105.02" y="71.8799" width="97.7002" height="106.791" filterUnits="userSpaceOnUse" color-interpolation-filters="sRGB">
<feFlood flood-opacity="0" result="BackgroundImageFix"/>
<feColorMatrix in="SourceAlpha" type="matrix" values="0 0 0 0 0 0 0 0 0 0 0 0 0 0 0 0 0 0 127 0" result="hardAlpha"/>
<feOffset dy="12"/>
<feGaussianBlur stdDeviation="16"/>
<feColorMatrix type="matrix" values="0 0 0 0 0 0 0 0 0 0 0 0 0 0 0 0 0 0 0.05 0"/>
<feBlend mode="normal" in2="BackgroundImageFix" result="effect1_dropShadow_1205_9896"/>
<feColorMatrix in="SourceAlpha" type="matrix" values="0 0 0 0 0 0 0 0 0 0 0 0 0 0 0 0 0 0 127 0" result="hardAlpha"/>
<feOffset dy="2"/>
<feGaussianBlur stdDeviation="2"/>
<feColorMatrix type="matrix" values="0 0 0 0 0.10936 0 0 0 0 0.0193333 0 0 0 0 0.300667 0 0 0 0.1 0"/>
<feBlend mode="normal" in2="effect1_dropShadow_1205_9896" result="effect2_dropShadow_1205_9896"/>
<feBlend mode="normal" in="SourceGraphic" in2="effect2_dropShadow_1205_9896" result="shape"/>
</filter>
<linearGradient id="paint0_linear_1205_9896" x1="96.5756" y1="117.485" x2="130.342" y2="117.485" gradientUnits="userSpaceOnUse">
<stop stop-color="#ECA04A"/>
<stop offset="1" stop-color="#F59E3D"/>
</linearGradient>
<linearGradient id="paint1_linear_1205_9896" x1="12.8802" y1="34.5001" x2="46.6002" y2="34.5001" gradientUnits="userSpaceOnUse">
<stop stop-color="#84B0A0"/>
<stop offset="1" stop-color="#81AE9E"/>
</linearGradient>
<linearGradient id="paint2_linear_1205_9896" x1="55.9104" y1="38.74" x2="89.8502" y2="38.74" gradientUnits="userSpaceOnUse">
<stop stop-color="#ECA04A"/>
<stop offset="1" stop-color="#F59E3D"/>
</linearGradient>
<linearGradient id="paint3_linear_1205_9896" x1="4358.44" y1="13012.4" x2="5492.45" y2="13012.4" gradientUnits="userSpaceOnUse">
<stop stop-color="#C95F63"/>
<stop offset="1" stop-color="#C05863"/>
</linearGradient>
<linearGradient id="paint4_linear_1205_9896" x1="4248.16" y1="13164.9" x2="5385.81" y2="13164.9" gradientUnits="userSpaceOnUse">
<stop stop-color="#C95F63"/>
<stop offset="1" stop-color="#C05863"/>
</linearGradient>
<linearGradient id="paint5_linear_1205_9896" x1="56.0996" y1="113.3" x2="90.0421" y2="113.3" gradientUnits="userSpaceOnUse">
<stop stop-color="#DA7F56"/>
<stop offset="1" stop-color="#D37B55"/>
</linearGradient>
<linearGradient id="paint6_linear_1205_9896" x1="137.046" y1="113.281" x2="170.718" y2="113.281" gradientUnits="userSpaceOnUse">
<stop stop-color="#84B0A0"/>
<stop offset="1" stop-color="#81AE9E"/>
</linearGradient>
<clipPath id="clip0_1205_9896">
<rect width="183.81" height="147.72" fill="white"/>
</clipPath>
</defs>
</svg>
