<svg width="187" height="43" viewBox="0 0 187 43" fill="none" xmlns="http://www.w3.org/2000/svg">
<g clip-path="url(#clip0_1787_7108)">
<g filter="url(#filter0_dd_1787_7108)">
<path d="M152.961 34.555C151.605 33.5558 150.559 32.1701 149.949 30.5664C148.546 26.6442 148.546 22.3308 149.949 18.4086C150.558 16.8074 151.605 15.425 152.961 14.4306C154.346 13.517 155.954 13.0317 157.595 13.0317C159.237 13.0317 160.845 13.517 162.229 14.4306C163.581 15.4271 164.624 16.8092 165.231 18.4086C166.635 22.3308 166.635 26.6442 165.231 30.5664C164.621 32.1701 163.575 33.5558 162.219 34.555C160.845 35.4674 159.248 35.9524 157.616 35.9524C155.984 35.9524 154.387 35.4674 153.013 34.555H152.961Z" fill="url(#paint0_linear_1787_7108)"/>
</g>
<g filter="url(#filter1_dd_1787_7108)">
<path d="M47.4621 35.3547C46.4014 34.9761 45.8711 34.4749 45.8711 33.8563V15.1556C45.8711 14.5371 46.386 14.0465 47.4621 13.6732C48.8318 13.2555 50.257 13.0665 51.6841 13.1133C53.1418 13.0633 54.5981 13.2522 55.9988 13.6732C57.0286 14.0465 57.5846 14.5371 57.5846 15.1556V33.867C57.5846 34.4855 57.0698 34.9868 55.9988 35.3654C54.6002 35.7981 53.143 35.9926 51.6841 35.9413C50.2553 35.9859 48.829 35.7877 47.4621 35.3547V35.3547Z" fill="url(#paint1_linear_1787_7108)"/>
</g>
<g filter="url(#filter2_dd_1787_7108)">
<path d="M94.9751 17.7363C95.4429 17.8384 95.9025 17.9774 96.3498 18.1522L95.8349 19.8266L95.5723 19.9119C94.9122 19.451 94.1431 19.1855 93.348 19.144C92.8929 19.1136 92.4431 19.26 92.0866 19.5546C91.9298 19.7061 91.8077 19.892 91.7293 20.0987C91.6509 20.3053 91.6181 20.5276 91.6335 20.7491C91.6052 21.1932 91.7414 21.6318 92.0145 21.9755C92.1565 22.1237 92.3259 22.2407 92.5125 22.3195C92.6992 22.3983 92.8993 22.4373 93.1009 22.4341L97.1015 22.1995L98.9654 21.9435L99.1611 22.1782L98.8161 23.6126L96.3961 23.7139L96.3447 23.7992C96.6076 24.272 96.7394 24.8108 96.7257 25.3563C96.7271 25.9777 96.5651 26.5879 96.2571 27.1213C95.9104 27.6889 95.4161 28.1435 94.8309 28.433C94.0967 28.8018 93.2885 28.9846 92.4727 28.9663C91.53 29.0226 90.5954 28.7586 89.8108 28.2144C89.5014 27.9801 89.252 27.6711 89.0842 27.3143C88.9164 26.9574 88.8353 26.5635 88.848 26.1668C88.8441 25.5606 89.0485 24.9728 89.4246 24.5084C89.8941 23.9606 90.4814 23.535 91.1392 23.266V23.154C90.7377 22.9093 90.4079 22.5564 90.1848 22.1329C89.9618 21.7094 89.8539 21.2311 89.8726 20.7491C89.8593 20.3094 89.9455 19.8725 90.1243 19.4735C90.3031 19.0744 90.5695 18.7242 90.9023 18.4508C91.7171 17.8361 92.7124 17.5328 93.7187 17.5923C94.1411 17.5975 94.5619 17.6457 94.9751 17.7363ZM92.2977 23.8845C91.2988 24.3964 90.7994 25.0736 90.7994 25.9162C90.7897 26.1407 90.8312 26.3644 90.9207 26.5692C91.0102 26.7739 91.145 26.954 91.3142 27.0946C91.7251 27.4006 92.2249 27.5512 92.7302 27.5212C93.0423 27.5444 93.3558 27.5036 93.6526 27.4011C93.9495 27.2986 94.2239 27.1365 94.4602 26.924C94.6603 26.7142 94.8162 26.4637 94.9181 26.1884C95.02 25.913 95.0657 25.6188 95.0523 25.3243C95.0562 25.0269 95.0038 24.7316 94.8978 24.4551C94.8021 24.2063 94.6524 23.9837 94.4602 23.8045L92.2977 23.8845Z" fill="#0A0D22"/>
</g>
<g filter="url(#filter3_dd_1787_7108)">
<path d="M16.3267 26.1774C17.036 27.2207 17.3976 28.4749 17.3565 29.7501C17.3959 30.6229 17.236 31.4931 16.8898 32.2899C16.5436 33.0867 16.0208 33.7877 15.3639 34.336C14.0389 35.4451 12.2094 35.9979 9.87526 35.9944H1.91518C1.6573 36.0209 1.39694 35.9879 1.15289 35.8976C0.908845 35.8073 0.6872 35.662 0.503952 35.4723C0.320703 35.2825 0.180423 35.0529 0.0932424 34.8002C0.00606128 34.5474 -0.0258477 34.2778 -0.000182936 34.0107V15.0541C-0.0258477 14.787 0.00606128 14.5174 0.0932424 14.2646C0.180423 14.0119 0.320703 13.7823 0.503952 13.5925C0.6872 13.4028 0.908845 13.2575 1.15289 13.1672C1.39694 13.0769 1.6573 13.0439 1.91518 13.0704H9.57662C11.8421 13.0704 13.6184 13.6037 14.9057 14.6702C15.9299 15.5893 16.5984 16.8613 16.7877 18.2511C16.977 19.641 16.6743 21.0548 15.9354 22.2315C15.3088 23.1323 14.4298 23.8118 13.4176 24.1778C14.5778 24.4844 15.6033 25.1893 16.3267 26.1774Z" fill="url(#paint2_linear_1787_7108)"/>
</g>
<g filter="url(#filter4_dd_1787_7108)">
<path d="M31.4645 29.036H24.596C23.9662 29.0418 23.3593 28.7915 22.9058 28.3387C22.4523 27.886 22.1884 27.2671 22.1709 26.615V8.54892C22.1884 7.89685 22.4523 7.27794 22.9058 6.82524C23.3593 6.37253 23.9662 6.12219 24.596 6.12803H30.3472C34.7392 6.12803 37.777 9.32746 37.777 13.2254C37.8215 14.4478 37.5053 15.6553 36.8706 16.687C36.236 17.7186 35.3129 18.5256 34.2243 19.0004L34.0595 19.0644L39.1002 25.0633C39.4734 25.5047 39.6704 26.0767 39.6512 26.663C39.6485 26.9837 39.5842 27.3006 39.4618 27.5951C39.3395 27.8897 39.1616 28.156 38.9387 28.3784C38.7157 28.6009 38.4521 28.7751 38.1634 28.8907C37.8746 29.0064 37.5664 29.0612 37.2569 29.0519" fill="url(#paint3_linear_1787_7108)"/>
</g>
<g filter="url(#filter5_dd_1787_7108)">
<path d="M63.835 17.4644C63.835 11.0655 68.16 6.03711 73.6589 6.03711C74.9898 6.04183 76.304 6.34503 77.511 6.92587C78.718 7.5067 79.7892 8.35139 80.651 9.40184C80.9852 9.86335 81.1659 10.4247 81.1659 11.0016C81.1659 12.068 80.1361 12.6759 79.1064 13.3531C76.048 15.4861 74.5136 16.5099 74.4724 17.2298C74.4364 18.2963 76.1252 19.4854 79.1064 21.5384C80.0434 22.1889 81.1659 22.8235 81.1659 23.8899C81.1659 24.4668 80.9852 25.0281 80.651 25.4897C79.7892 26.5401 78.718 27.3848 77.511 27.9656C76.304 28.5465 74.9898 28.8497 73.6589 28.8544C68.16 28.8864 63.835 23.8419 63.835 17.4644Z" fill="url(#paint4_linear_1787_7108)"/>
</g>
<g filter="url(#filter6_dd_1787_7108)">
<path d="M122.12 26.1348C122.829 27.1804 123.19 28.4361 123.15 29.7129C123.189 30.5857 123.029 31.4558 122.683 32.2526C122.337 33.0494 121.814 33.7504 121.157 34.2987C119.843 35.4007 118.022 35.9518 115.694 35.9518H107.703C107.445 35.9783 107.185 35.9453 106.941 35.855C106.697 35.7647 106.475 35.6194 106.292 35.4297C106.109 35.2399 105.969 35.0103 105.881 34.7576C105.794 34.5048 105.762 34.2352 105.788 33.9681V15.0115C105.773 14.7445 105.811 14.4771 105.9 14.2259C105.988 13.9746 106.125 13.7447 106.303 13.5504C106.491 13.3683 106.712 13.2273 106.953 13.1357C107.195 13.0441 107.452 13.0038 107.708 13.0172H115.37C117.635 13.0172 119.412 13.5504 120.699 14.6169C121.723 15.536 122.392 16.808 122.581 18.1978C122.77 19.5877 122.468 21.0015 121.729 22.1782C121.104 23.0823 120.225 23.764 119.211 24.1299C120.373 24.4351 121.399 25.1425 122.12 26.1348V26.1348Z" fill="url(#paint5_linear_1787_7108)"/>
</g>
<g filter="url(#filter7_dd_1787_7108)">
<path d="M137.273 28.9936H130.405C129.775 29.0008 129.168 28.7517 128.715 28.2998C128.261 27.848 127.997 27.2296 127.979 26.578V8.50654C127.997 7.85496 128.261 7.2366 128.715 6.78475C129.168 6.33289 129.775 6.08373 130.405 6.09097H136.156C140.548 6.09097 143.586 9.2904 143.586 13.1884C143.629 14.4106 143.313 15.6178 142.678 16.6493C142.044 17.6808 141.121 18.4879 140.033 18.9634L139.868 19.0273L144.909 25.0263C145.282 25.4677 145.479 26.0396 145.46 26.626C145.457 26.9464 145.393 27.263 145.27 27.5573C145.148 27.8516 144.97 28.1175 144.747 28.3396C144.524 28.5616 144.26 28.7353 143.972 28.8503C143.683 28.9654 143.375 29.0195 143.066 29.0096" fill="url(#paint6_linear_1787_7108)"/>
</g>
<g filter="url(#filter8_dd_1787_7108)">
<path d="M169.644 17.422C169.644 11.0231 173.969 6 179.468 6C180.802 6.00021 182.121 6.30129 183.332 6.88233C184.543 7.46337 185.617 8.31046 186.48 9.36475C186.825 9.82222 187.017 10.3839 187.026 10.9645C187.026 12.0043 185.965 12.6388 184.966 13.3107C181.903 15.417 180.374 16.4728 180.333 17.1927C180.296 18.2592 181.985 19.4429 184.966 21.5012C185.898 22.1518 187.026 22.7864 187.026 23.8528C187.017 24.4334 186.825 24.9951 186.48 25.4525C185.62 26.5034 184.55 27.3485 183.343 27.9294C182.137 28.5103 180.824 28.8132 179.493 28.8173C173.969 28.8493 169.644 23.8048 169.644 17.422Z" fill="url(#paint7_linear_1787_7108)"/>
</g>
</g>
<defs>
<filter id="filter0_dd_1787_7108" x="116.896" y="-6.96826" width="81.3877" height="86.9204" filterUnits="userSpaceOnUse" color-interpolation-filters="sRGB">
<feFlood flood-opacity="0" result="BackgroundImageFix"/>
<feColorMatrix in="SourceAlpha" type="matrix" values="0 0 0 0 0 0 0 0 0 0 0 0 0 0 0 0 0 0 127 0" result="hardAlpha"/>
<feOffset dy="12"/>
<feGaussianBlur stdDeviation="16"/>
<feColorMatrix type="matrix" values="0 0 0 0 0 0 0 0 0 0 0 0 0 0 0 0 0 0 0.05 0"/>
<feBlend mode="normal" in2="BackgroundImageFix" result="effect1_dropShadow_1787_7108"/>
<feColorMatrix in="SourceAlpha" type="matrix" values="0 0 0 0 0 0 0 0 0 0 0 0 0 0 0 0 0 0 127 0" result="hardAlpha"/>
<feOffset dy="2"/>
<feGaussianBlur stdDeviation="2"/>
<feColorMatrix type="matrix" values="0 0 0 0 0.10936 0 0 0 0 0.0193333 0 0 0 0 0.300667 0 0 0 0.1 0"/>
<feBlend mode="normal" in2="effect1_dropShadow_1787_7108" result="effect2_dropShadow_1787_7108"/>
<feBlend mode="normal" in="SourceGraphic" in2="effect2_dropShadow_1787_7108" result="shape"/>
</filter>
<filter id="filter1_dd_1787_7108" x="13.8711" y="-6.89453" width="75.7139" height="86.8438" filterUnits="userSpaceOnUse" color-interpolation-filters="sRGB">
<feFlood flood-opacity="0" result="BackgroundImageFix"/>
<feColorMatrix in="SourceAlpha" type="matrix" values="0 0 0 0 0 0 0 0 0 0 0 0 0 0 0 0 0 0 127 0" result="hardAlpha"/>
<feOffset dy="12"/>
<feGaussianBlur stdDeviation="16"/>
<feColorMatrix type="matrix" values="0 0 0 0 0 0 0 0 0 0 0 0 0 0 0 0 0 0 0.05 0"/>
<feBlend mode="normal" in2="BackgroundImageFix" result="effect1_dropShadow_1787_7108"/>
<feColorMatrix in="SourceAlpha" type="matrix" values="0 0 0 0 0 0 0 0 0 0 0 0 0 0 0 0 0 0 127 0" result="hardAlpha"/>
<feOffset dy="2"/>
<feGaussianBlur stdDeviation="2"/>
<feColorMatrix type="matrix" values="0 0 0 0 0.10936 0 0 0 0 0.0193333 0 0 0 0 0.300667 0 0 0 0.1 0"/>
<feBlend mode="normal" in2="effect1_dropShadow_1787_7108" result="effect2_dropShadow_1787_7108"/>
<feBlend mode="normal" in="SourceGraphic" in2="effect2_dropShadow_1787_7108" result="shape"/>
</filter>
<filter id="filter2_dd_1787_7108" x="56.8467" y="-2.41504" width="74.3145" height="75.3887" filterUnits="userSpaceOnUse" color-interpolation-filters="sRGB">
<feFlood flood-opacity="0" result="BackgroundImageFix"/>
<feColorMatrix in="SourceAlpha" type="matrix" values="0 0 0 0 0 0 0 0 0 0 0 0 0 0 0 0 0 0 127 0" result="hardAlpha"/>
<feOffset dy="12"/>
<feGaussianBlur stdDeviation="16"/>
<feColorMatrix type="matrix" values="0 0 0 0 0 0 0 0 0 0 0 0 0 0 0 0 0 0 0.05 0"/>
<feBlend mode="normal" in2="BackgroundImageFix" result="effect1_dropShadow_1787_7108"/>
<feColorMatrix in="SourceAlpha" type="matrix" values="0 0 0 0 0 0 0 0 0 0 0 0 0 0 0 0 0 0 127 0" result="hardAlpha"/>
<feOffset dy="2"/>
<feGaussianBlur stdDeviation="2"/>
<feColorMatrix type="matrix" values="0 0 0 0 0.10936 0 0 0 0 0.0193333 0 0 0 0 0.300667 0 0 0 0.1 0"/>
<feBlend mode="normal" in2="effect1_dropShadow_1787_7108" result="effect2_dropShadow_1787_7108"/>
<feBlend mode="normal" in="SourceGraphic" in2="effect2_dropShadow_1787_7108" result="shape"/>
</filter>
<filter id="filter3_dd_1787_7108" x="-32.0088" y="-6.93848" width="81.3711" height="86.9419" filterUnits="userSpaceOnUse" color-interpolation-filters="sRGB">
<feFlood flood-opacity="0" result="BackgroundImageFix"/>
<feColorMatrix in="SourceAlpha" type="matrix" values="0 0 0 0 0 0 0 0 0 0 0 0 0 0 0 0 0 0 127 0" result="hardAlpha"/>
<feOffset dy="12"/>
<feGaussianBlur stdDeviation="16"/>
<feColorMatrix type="matrix" values="0 0 0 0 0 0 0 0 0 0 0 0 0 0 0 0 0 0 0.05 0"/>
<feBlend mode="normal" in2="BackgroundImageFix" result="effect1_dropShadow_1787_7108"/>
<feColorMatrix in="SourceAlpha" type="matrix" values="0 0 0 0 0 0 0 0 0 0 0 0 0 0 0 0 0 0 127 0" result="hardAlpha"/>
<feOffset dy="2"/>
<feGaussianBlur stdDeviation="2"/>
<feColorMatrix type="matrix" values="0 0 0 0 0.10936 0 0 0 0 0.0193333 0 0 0 0 0.300667 0 0 0 0.1 0"/>
<feBlend mode="normal" in2="effect1_dropShadow_1787_7108" result="effect2_dropShadow_1787_7108"/>
<feBlend mode="normal" in="SourceGraphic" in2="effect2_dropShadow_1787_7108" result="shape"/>
</filter>
<filter id="filter4_dd_1787_7108" x="-9.8291" y="-13.8721" width="81.4814" height="86.9248" filterUnits="userSpaceOnUse" color-interpolation-filters="sRGB">
<feFlood flood-opacity="0" result="BackgroundImageFix"/>
<feColorMatrix in="SourceAlpha" type="matrix" values="0 0 0 0 0 0 0 0 0 0 0 0 0 0 0 0 0 0 127 0" result="hardAlpha"/>
<feOffset dy="12"/>
<feGaussianBlur stdDeviation="16"/>
<feColorMatrix type="matrix" values="0 0 0 0 0 0 0 0 0 0 0 0 0 0 0 0 0 0 0.05 0"/>
<feBlend mode="normal" in2="BackgroundImageFix" result="effect1_dropShadow_1787_7108"/>
<feColorMatrix in="SourceAlpha" type="matrix" values="0 0 0 0 0 0 0 0 0 0 0 0 0 0 0 0 0 0 127 0" result="hardAlpha"/>
<feOffset dy="2"/>
<feGaussianBlur stdDeviation="2"/>
<feColorMatrix type="matrix" values="0 0 0 0 0.10936 0 0 0 0 0.0193333 0 0 0 0 0.300667 0 0 0 0.1 0"/>
<feBlend mode="normal" in2="effect1_dropShadow_1787_7108" result="effect2_dropShadow_1787_7108"/>
<feBlend mode="normal" in="SourceGraphic" in2="effect2_dropShadow_1787_7108" result="shape"/>
</filter>
<filter id="filter5_dd_1787_7108" x="31.835" y="-13.9629" width="81.3311" height="86.8174" filterUnits="userSpaceOnUse" color-interpolation-filters="sRGB">
<feFlood flood-opacity="0" result="BackgroundImageFix"/>
<feColorMatrix in="SourceAlpha" type="matrix" values="0 0 0 0 0 0 0 0 0 0 0 0 0 0 0 0 0 0 127 0" result="hardAlpha"/>
<feOffset dy="12"/>
<feGaussianBlur stdDeviation="16"/>
<feColorMatrix type="matrix" values="0 0 0 0 0 0 0 0 0 0 0 0 0 0 0 0 0 0 0.05 0"/>
<feBlend mode="normal" in2="BackgroundImageFix" result="effect1_dropShadow_1787_7108"/>
<feColorMatrix in="SourceAlpha" type="matrix" values="0 0 0 0 0 0 0 0 0 0 0 0 0 0 0 0 0 0 127 0" result="hardAlpha"/>
<feOffset dy="2"/>
<feGaussianBlur stdDeviation="2"/>
<feColorMatrix type="matrix" values="0 0 0 0 0.10936 0 0 0 0 0.0193333 0 0 0 0 0.300667 0 0 0 0.1 0"/>
<feBlend mode="normal" in2="effect1_dropShadow_1787_7108" result="effect2_dropShadow_1787_7108"/>
<feBlend mode="normal" in="SourceGraphic" in2="effect2_dropShadow_1787_7108" result="shape"/>
</filter>
<filter id="filter6_dd_1787_7108" x="73.7793" y="-6.98535" width="81.376" height="86.9458" filterUnits="userSpaceOnUse" color-interpolation-filters="sRGB">
<feFlood flood-opacity="0" result="BackgroundImageFix"/>
<feColorMatrix in="SourceAlpha" type="matrix" values="0 0 0 0 0 0 0 0 0 0 0 0 0 0 0 0 0 0 127 0" result="hardAlpha"/>
<feOffset dy="12"/>
<feGaussianBlur stdDeviation="16"/>
<feColorMatrix type="matrix" values="0 0 0 0 0 0 0 0 0 0 0 0 0 0 0 0 0 0 0.05 0"/>
<feBlend mode="normal" in2="BackgroundImageFix" result="effect1_dropShadow_1787_7108"/>
<feColorMatrix in="SourceAlpha" type="matrix" values="0 0 0 0 0 0 0 0 0 0 0 0 0 0 0 0 0 0 127 0" result="hardAlpha"/>
<feOffset dy="2"/>
<feGaussianBlur stdDeviation="2"/>
<feColorMatrix type="matrix" values="0 0 0 0 0.10936 0 0 0 0 0.0193333 0 0 0 0 0.300667 0 0 0 0.1 0"/>
<feBlend mode="normal" in2="effect1_dropShadow_1787_7108" result="effect2_dropShadow_1787_7108"/>
<feBlend mode="normal" in="SourceGraphic" in2="effect2_dropShadow_1787_7108" result="shape"/>
</filter>
<filter id="filter7_dd_1787_7108" x="95.9795" y="-13.9092" width="81.4814" height="86.9199" filterUnits="userSpaceOnUse" color-interpolation-filters="sRGB">
<feFlood flood-opacity="0" result="BackgroundImageFix"/>
<feColorMatrix in="SourceAlpha" type="matrix" values="0 0 0 0 0 0 0 0 0 0 0 0 0 0 0 0 0 0 127 0" result="hardAlpha"/>
<feOffset dy="12"/>
<feGaussianBlur stdDeviation="16"/>
<feColorMatrix type="matrix" values="0 0 0 0 0 0 0 0 0 0 0 0 0 0 0 0 0 0 0.05 0"/>
<feBlend mode="normal" in2="BackgroundImageFix" result="effect1_dropShadow_1787_7108"/>
<feColorMatrix in="SourceAlpha" type="matrix" values="0 0 0 0 0 0 0 0 0 0 0 0 0 0 0 0 0 0 127 0" result="hardAlpha"/>
<feOffset dy="2"/>
<feGaussianBlur stdDeviation="2"/>
<feColorMatrix type="matrix" values="0 0 0 0 0.10936 0 0 0 0 0.0193333 0 0 0 0 0.300667 0 0 0 0.1 0"/>
<feBlend mode="normal" in2="effect1_dropShadow_1787_7108" result="effect2_dropShadow_1787_7108"/>
<feBlend mode="normal" in="SourceGraphic" in2="effect2_dropShadow_1787_7108" result="shape"/>
</filter>
<filter id="filter8_dd_1787_7108" x="137.644" y="-14" width="81.3828" height="86.8174" filterUnits="userSpaceOnUse" color-interpolation-filters="sRGB">
<feFlood flood-opacity="0" result="BackgroundImageFix"/>
<feColorMatrix in="SourceAlpha" type="matrix" values="0 0 0 0 0 0 0 0 0 0 0 0 0 0 0 0 0 0 127 0" result="hardAlpha"/>
<feOffset dy="12"/>
<feGaussianBlur stdDeviation="16"/>
<feColorMatrix type="matrix" values="0 0 0 0 0 0 0 0 0 0 0 0 0 0 0 0 0 0 0.05 0"/>
<feBlend mode="normal" in2="BackgroundImageFix" result="effect1_dropShadow_1787_7108"/>
<feColorMatrix in="SourceAlpha" type="matrix" values="0 0 0 0 0 0 0 0 0 0 0 0 0 0 0 0 0 0 127 0" result="hardAlpha"/>
<feOffset dy="2"/>
<feGaussianBlur stdDeviation="2"/>
<feColorMatrix type="matrix" values="0 0 0 0 0.10936 0 0 0 0 0.0193333 0 0 0 0 0.300667 0 0 0 0.1 0"/>
<feBlend mode="normal" in2="effect1_dropShadow_1787_7108" result="effect2_dropShadow_1787_7108"/>
<feBlend mode="normal" in="SourceGraphic" in2="effect2_dropShadow_1787_7108" result="shape"/>
</filter>
<linearGradient id="paint0_linear_1787_7108" x1="148.881" y1="26.7357" x2="166.267" y2="26.7357" gradientUnits="userSpaceOnUse">
<stop stop-color="#ECA04A"/>
<stop offset="1" stop-color="#F59E3D"/>
</linearGradient>
<linearGradient id="paint1_linear_1787_7108" x1="45.8711" y1="24.5273" x2="57.5846" y2="24.5273" gradientUnits="userSpaceOnUse">
<stop stop-color="#DA7F56"/>
<stop offset="1" stop-color="#D37B55"/>
</linearGradient>
<linearGradient id="paint2_linear_1787_7108" x1="0.00496179" y1="24.5356" x2="17.3618" y2="24.5356" gradientUnits="userSpaceOnUse">
<stop stop-color="#84B0A0"/>
<stop offset="1" stop-color="#81AE9E"/>
</linearGradient>
<linearGradient id="paint3_linear_1787_7108" x1="22.1555" y1="19.8345" x2="39.6354" y2="19.8345" gradientUnits="userSpaceOnUse">
<stop stop-color="#ECA04A"/>
<stop offset="1" stop-color="#F59E3D"/>
</linearGradient>
<linearGradient id="paint4_linear_1787_7108" x1="2239.39" y1="6939.34" x2="2823.78" y2="6939.34" gradientUnits="userSpaceOnUse">
<stop stop-color="#C95F63"/>
<stop offset="1" stop-color="#C05863"/>
</linearGradient>
<linearGradient id="paint5_linear_1787_7108" x1="2287.03" y1="6985.39" x2="2872.96" y2="6985.39" gradientUnits="userSpaceOnUse">
<stop stop-color="#C95F63"/>
<stop offset="1" stop-color="#C05863"/>
</linearGradient>
<linearGradient id="paint6_linear_1787_7108" x1="127.979" y1="17.5507" x2="145.461" y2="17.5507" gradientUnits="userSpaceOnUse">
<stop stop-color="#DA7F56"/>
<stop offset="1" stop-color="#D37B55"/>
</linearGradient>
<linearGradient id="paint7_linear_1787_7108" x1="169.657" y1="17.4119" x2="187.025" y2="17.4119" gradientUnits="userSpaceOnUse">
<stop stop-color="#84B0A0"/>
<stop offset="1" stop-color="#81AE9E"/>
</linearGradient>
<clipPath id="clip0_1787_7108">
<rect width="187" height="30" fill="white" transform="translate(0 6)"/>
</clipPath>
</defs>
</svg>
